<svg xmlns="http://www.w3.org/2000/svg" width="1400" height="760" viewBox="0 0 1400 760" role="img" aria-labelledby="title desc">
  <title id="title">Lab 8 — Financial analyst with an XLSX skill</title><desc id="desc">The Financial Analyst agent owns a built-in toolset and Anthropic XLSX skill. The environment owns data-science packages and unrestricted networking. A CSV file is attached as a session resource and mounted in the workspace. The resulting workbook is downloaded through the Files API.</desc>
  <defs><marker id="a" markerWidth="9" markerHeight="9" refX="8" refY="4.5" orient="auto"><path d="M0 0 9 4.5 0 9Z" fill="#4f7cff"/></marker><symbol id="msg" viewBox="0 0 24 24"><path d="M22 17a2 2 0 0 1-2 2H7l-5 3V5a2 2 0 0 1 2-2h16a2 2 0 0 1 2 2z"/></symbol><symbol id="bot" viewBox="0 0 24 24"><path d="M12 8V4H8"/><rect x="4" y="8" width="16" height="12" rx="2"/><path d="M2 14h2m16 0h2M9 13v2m6-2v2"/></symbol><symbol id="cloud" viewBox="0 0 24 24"><path d="M17.5 19H9a7 7 0 1 1 6.7-9h1.8a4.5 4.5 0 1 1 0 9Z"/></symbol><symbol id="tool" viewBox="0 0 24 24"><path d="M14.7 6.3a4 4 0 0 0-5-5L7.5 3.5l3 3-4 4-3-3-2.2 2.2a4 4 0 0 0 5 5L16 24l8-8-9.3-9.7Z"/></symbol><symbol id="spark" viewBox="0 0 24 24"><path d="m12 3-1.9 5.1L5 10l5.1 1.9L12 17l1.9-5.1L19 10l-5.1-1.9ZM5 3v4M3 5h4m12 12v4m-2-2h4"/></symbol><symbol id="pkg" viewBox="0 0 24 24"><path d="M3 7l9 5 9-5M3 17l9 5 9-5V7l-9-5-9 5Z"/><path d="M12 12v10"/></symbol><symbol id="network" viewBox="0 0 24 24"><circle cx="12" cy="12" r="10"/><path d="M2 12h20M12 2a15 15 0 0 1 0 20M12 2a15 15 0 0 0 0 20"/></symbol><symbol id="file" viewBox="0 0 24 24"><path d="M14 2H6a2 2 0 0 0-2 2v16a2 2 0 0 0 2 2h12a2 2 0 0 0 2-2V8Z"/><path d="M14 2v6h6M8 13h8m-8 4h8"/></symbol></defs>
  <style>.bg{fill:#f7f9fc}.session{fill:#fbfdff;stroke:#4f7cff;stroke-width:2.5}.panel{fill:#fff;stroke:#d6e1ec;stroke-width:2}.agent{fill:#eef4ff;stroke:#7aa0ff;stroke-width:2}.sub{fill:#fff;stroke:#bfd0e3;stroke-width:1.7}.line{fill:none;stroke:#4f7cff;stroke-width:2.3;marker-end:url(#a)}.dash{fill:none;stroke:#7d91a6;stroke-width:2;stroke-dasharray:6 6}.h{font:700 25px system-ui,sans-serif;fill:#17324d}.k{font:700 12px system-ui,sans-serif;letter-spacing:.09em;fill:#60758a}.l{font:650 17px system-ui,sans-serif;fill:#17324d}.n{font:14px system-ui,sans-serif;fill:#60758a}.icon{fill:none;stroke:#4f7cff;stroke-width:2;stroke-linecap:round;stroke-linejoin:round}</style>
  <rect class="bg" x="4" y="4" width="1392" height="752" rx="28"/><text class="h" x="42" y="52">Financial analyst with an XLSX skill</text>
  <rect class="panel" x="40" y="122" width="200" height="132" rx="18"/><use href="#msg" class="icon" x="58" y="143" width="24" height="24"/><text class="k" x="94" y="159">USER PROMPT</text><text class="l" x="58" y="197">Build workbook</text><text class="n" x="58" y="225">analysis + charts</text><path class="line" d="M240 188H278"/>
  <rect class="session" x="278" y="88" width="858" height="610" rx="28"/><text class="k" x="310" y="122">MANAGED AGENT SESSION</text><text class="n" x="310" y="146">agent + environment + mounted file resource</text>
  <rect class="agent" x="310" y="170" width="410" height="332" rx="22"/><use href="#bot" class="icon" x="332" y="192" width="27" height="27"/><text class="k" x="371" y="209">AGENT</text><text class="l" x="332" y="245">Financial Analyst</text><text class="n" x="332" y="270">professional workbook instructions</text><rect class="sub" x="332" y="294" width="366" height="62" rx="14"/><use href="#tool" class="icon" x="350" y="313" width="21" height="21"/><text class="k" x="382" y="329">BUILT-IN AGENT TOOLSET</text><rect class="sub" x="332" y="390" width="366" height="80" rx="14"/><use href="#spark" class="icon" x="350" y="409" width="21" height="21"/><text class="k" x="382" y="425">ANTHROPIC SKILL</text><text class="l" x="350" y="454">xlsx · loaded reactively</text>
  <rect class="panel" x="752" y="170" width="352" height="332" rx="22"/><use href="#cloud" class="icon" x="774" y="192" width="25" height="25"/><text class="k" x="811" y="208">ENVIRONMENT</text><text class="l" x="774" y="245">Cloud runtime</text><rect class="sub" x="774" y="270" width="308" height="94" rx="15"/><use href="#pkg" class="icon" x="792" y="289" width="21" height="21"/><text class="k" x="824" y="305">PACKAGES</text><text class="n" x="792" y="338">pandas · numpy · matplotlib</text><rect class="sub" x="774" y="380" width="308" height="88" rx="15"/><use href="#network" class="icon" x="792" y="399" width="21" height="21"/><text class="k" x="824" y="415">NETWORK PERMISSIONS</text><text class="n" x="792" y="448">unrestricted</text><path class="dash" d="M720 334H752"/>
  <rect class="panel" x="310" y="530" width="794" height="126" rx="20"/><use href="#file" class="icon" x="332" y="551" width="23" height="23"/><text class="k" x="369" y="568">SESSION RESOURCE · FILE</text><text class="l" x="332" y="604">revenue.csv</text><text class="n" x="504" y="604">mounted at /workspace/revenue.csv</text><text class="n" x="332" y="631">uploaded through Managed Agents Files API</text>
  <rect class="panel" x="1170" y="320" width="194" height="142" rx="18"/><use href="#file" class="icon" x="1189" y="341" width="24" height="24"/><text class="k" x="1224" y="358">RESULT</text><text class="l" x="1189" y="398">revenue_summary</text><text class="l" x="1189" y="422">.xlsx</text><text class="n" x="1189" y="448">Files API download</text><path class="line" d="M1104 590H1148V500H1267V462"/>
</svg>
