<svg xmlns="http://www.w3.org/2000/svg" width="1740" height="1040" viewBox="0 0 1740 1040" role="img" aria-labelledby="title desc">
  <title id="title">Lab 13 — Personal Research Agent capstone</title><desc id="desc">A user-defined outcome enters a Managed Agent session containing a Research Lead coordinator, specialist roster, and cloud environment. Tools and permissions belong to their agents. Packages and networking belong to the environment. Read-only and read-write memory stores plus vault IDs are session resources and configuration. Google Docs and Slack are separate external MCP servers.</desc>
  <defs><marker id="a" markerWidth="9" markerHeight="9" refX="8" refY="4.5" orient="auto"><path d="M0 0 9 4.5 0 9Z" fill="#4f7cff"/></marker><symbol id="msg" viewBox="0 0 24 24"><path d="M22 17a2 2 0 0 1-2 2H7l-5 3V5a2 2 0 0 1 2-2h16a2 2 0 0 1 2 2z"/></symbol><symbol id="bot" viewBox="0 0 24 24"><path d="M12 8V4H8"/><rect x="4" y="8" width="16" height="12" rx="2"/><path d="M2 14h2m16 0h2M9 13v2m6-2v2"/></symbol><symbol id="users" viewBox="0 0 24 24"><path d="M16 21v-2a4 4 0 0 0-4-4H6a4 4 0 0 0-4 4v2"/><circle cx="9" cy="7" r="4"/><path d="M22 21v-2a4 4 0 0 0-3-3.9M16 3.1a4 4 0 0 1 0 7.8"/></symbol><symbol id="cloud" viewBox="0 0 24 24"><path d="M17.5 19H9a7 7 0 1 1 6.7-9h1.8a4.5 4.5 0 1 1 0 9Z"/></symbol><symbol id="tool" viewBox="0 0 24 24"><path d="M14.7 6.3a4 4 0 0 0-5-5L7.5 3.5l3 3-4 4-3-3-2.2 2.2a4 4 0 0 0 5 5L16 24l8-8-9.3-9.7Z"/></symbol><symbol id="plug" viewBox="0 0 24 24"><path d="M12 22v-5M15 8V2M9 8V2"/><path d="M7 8h10a1 1 0 0 1 1 1v4a4 4 0 0 1-4 4h-4a4 4 0 0 1-4-4V9a1 1 0 0 1 1-1Z"/></symbol><symbol id="shield" viewBox="0 0 24 24"><path d="M20 13c0 5-3.5 7.5-8 9-4.5-1.5-8-4-8-9V5l8-3 8 3z"/><path d="m9 12 2 2 4-4"/></symbol><symbol id="pkg" viewBox="0 0 24 24"><path d="M3 7l9 5 9-5M3 17l9 5 9-5V7l-9-5-9 5Z"/><path d="M12 12v10"/></symbol><symbol id="network" viewBox="0 0 24 24"><rect x="16" y="16" width="6" height="6" rx="1"/><rect x="2" y="16" width="6" height="6" rx="1"/><rect x="9" y="2" width="6" height="6" rx="1"/><path d="M5 16v-3h14v3M12 8v5"/></symbol><symbol id="db" viewBox="0 0 24 24"><ellipse cx="12" cy="5" rx="9" ry="3"/><path d="M3 5v14c0 1.7 4 3 9 3s9-1.3 9-3V5M3 12c0 1.7 4 3 9 3s9-1.3 9-3"/></symbol><symbol id="key" viewBox="0 0 24 24"><circle cx="7.5" cy="15.5" r="5.5"/><path d="m21 2-9.6 9.6M15 8l3 3m-6-6 3 3"/></symbol><symbol id="safe" viewBox="0 0 24 24"><rect x="3" y="3" width="18" height="18" rx="2"/><circle cx="12" cy="12" r="3"/><path d="M12 9V7m3 5h2m-5 3v2m-3-5H7"/></symbol><symbol id="check" viewBox="0 0 24 24"><path d="M9 11l3 3L22 4"/><path d="M21 12v7a2 2 0 0 1-2 2H5a2 2 0 0 1-2-2V5a2 2 0 0 1 2-2h11"/></symbol><symbol id="file" viewBox="0 0 24 24"><path d="M14 2H6a2 2 0 0 0-2 2v16a2 2 0 0 0 2 2h12a2 2 0 0 0 2-2V8Z"/><path d="M14 2v6h6M8 13h8m-8 4h8"/></symbol></defs>
  <style>.bg{fill:#f7f9fc}.session{fill:#fbfdff;stroke:#4f7cff;stroke-width:2.5}.panel{fill:#fff;stroke:#d6e1ec;stroke-width:2}.agent{fill:#eef4ff;stroke:#7aa0ff;stroke-width:2}.sub{fill:#fff;stroke:#bfd0e3;stroke-width:1.7}.role{fill:#f8fbff;stroke:#9db8d6;stroke-width:1.7}.rw{fill:#eef8f3;stroke:#78b89a;stroke-width:1.8}.ro{fill:#f5f2fb;stroke:#9b8bc4;stroke-width:1.8}.accent{fill:#fff8eb;stroke:#e7b453;stroke-width:1.8}.line{fill:none;stroke:#4f7cff;stroke-width:2.3;marker-end:url(#a)}.dash{fill:none;stroke:#7d91a6;stroke-width:2;stroke-dasharray:6 6}.h{font:700 25px system-ui,sans-serif;fill:#17324d}.k{font:700 12px system-ui,sans-serif;letter-spacing:.09em;fill:#60758a}.l{font:650 17px system-ui,sans-serif;fill:#17324d}.n{font:14px system-ui,sans-serif;fill:#60758a}.s{font:13px system-ui,sans-serif;fill:#60758a}.icon{fill:none;stroke:#4f7cff;stroke-width:2;stroke-linecap:round;stroke-linejoin:round}</style>
  <rect class="bg" x="4" y="4" width="1732" height="1032" rx="28"/><text class="h" x="42" y="52">Capstone: Personal Research Agent</text>
  <rect class="panel" x="40" y="126" width="210" height="148" rx="18"/><use href="#msg" class="icon" x="58" y="147" width="24" height="24"/><text class="k" x="94" y="163">USER-DEFINED OUTCOME</text><text class="l" x="58" y="201">Research topic</text><text class="n" x="58" y="228">rubric + max 8 iterations</text><text class="n" x="58" y="252">Google Doc + Slack updates</text><path class="line" d="M250 200H284"/>
  <rect class="session" x="284" y="88" width="1160" height="902" rx="28"/><text class="k" x="316" y="122">MANAGED AGENT SESSION</text><text class="n" x="316" y="146">coordinator + specialists + environment + memory attachments + vaults + outcome loop</text>
  <rect class="agent" x="316" y="170" width="722" height="560" rx="22"/><use href="#bot" class="icon" x="338" y="192" width="27" height="27"/><text class="k" x="377" y="209">COORDINATOR AGENT</text><text class="l" x="338" y="245">Capstone Research Lead</text><text class="n" x="338" y="270">coordinates handoffs, filing, and status updates</text>
  <rect class="sub" x="338" y="294" width="678" height="124" rx="14"/><use href="#tool" class="icon" x="356" y="313" width="21" height="21"/><text class="k" x="388" y="329">BUILT-IN AGENT TOOLSET</text><use href="#plug" class="icon" x="680" y="313" width="21" height="21"/><text class="k" x="712" y="329">MCP TOOLSETS · GOOGLE DOCS + SLACK</text><rect class="accent" x="680" y="350" width="318" height="56" rx="9"/><use href="#shield" class="icon" x="694" y="369" width="17" height="17"/><text class="s" x="721" y="382">Slack permission: always_allow</text>
  <rect class="sub" x="338" y="438" width="678" height="260" rx="16"/><use href="#users" class="icon" x="356" y="457" width="23" height="23"/><text class="k" x="391" y="474">MULTIAGENT ROSTER · SPECIALIST AGENTS</text><rect class="role" x="356" y="500" width="198" height="168" rx="14"/><text class="l" x="372" y="531">Researcher</text><text class="s" x="372" y="557">scoped tools</text><text class="n" x="372" y="583">web_search · web_fetch</text><text class="n" x="372" y="608">read · write</text><text class="s" x="372" y="642">→ citations.json</text><rect class="role" x="568" y="500" width="198" height="168" rx="14"/><text class="l" x="584" y="531">Writer</text><text class="s" x="584" y="557">Built-In Agent Toolset</text><text class="s" x="584" y="642">→ draft.md</text><rect class="role" x="780" y="500" width="218" height="168" rx="14"/><text class="l" x="796" y="531">Fact-Checker</text><text class="s" x="796" y="557">scoped tools</text><text class="n" x="796" y="583">web_fetch · read · write</text><text class="s" x="796" y="642">→ check.md</text>
  <rect class="panel" x="1068" y="170" width="344" height="326" rx="22"/><use href="#cloud" class="icon" x="1090" y="192" width="25" height="25"/><text class="k" x="1127" y="208">ENVIRONMENT</text><text class="l" x="1090" y="245">Shared cloud runtime</text><rect class="sub" x="1090" y="272" width="300" height="80" rx="14"/><use href="#pkg" class="icon" x="1108" y="291" width="21" height="21"/><text class="k" x="1140" y="307">PACKAGES</text><text class="n" x="1108" y="338">beautifulsoup4 · markdownify</text><rect class="sub" x="1090" y="368" width="300" height="104" rx="14"/><use href="#network" class="icon" x="1108" y="387" width="21" height="21"/><text class="k" x="1140" y="403">NETWORK PERMISSIONS</text><text class="l" x="1108" y="437">limited</text><text class="n" x="1108" y="461">Google hosts · MCP · packages</text><path class="dash" d="M1038 333H1068"/>
  <rect class="panel" x="316" y="758" width="722" height="192" rx="20"/><text class="k" x="338" y="786">SESSION RESOURCES · MEMORY STORE ATTACHMENTS</text><rect class="ro" x="338" y="808" width="326" height="116" rx="14"/><use href="#db" class="icon" x="356" y="827" width="21" height="21"/><text class="k" x="388" y="843">USER PREFERENCES</text><text class="l" x="356" y="878">read_only</text><text class="n" x="356" y="904">style + trusted sources</text><rect class="rw" x="686" y="808" width="330" height="116" rx="14"/><use href="#db" class="icon" x="704" y="827" width="21" height="21"/><text class="k" x="736" y="843">TOPIC CONTEXT</text><text class="l" x="704" y="878">read_write</text><text class="n" x="704" y="904">persistent per-topic log</text>
  <rect class="panel" x="1068" y="524" width="344" height="182" rx="20"/><use href="#safe" class="icon" x="1090" y="546" width="23" height="23"/><text class="k" x="1127" y="563">SESSION VAULT IDS</text><text class="l" x="1090" y="598">Google Docs + Slack</text><text class="n" x="1090" y="624">MCP OAuth credentials</text><use href="#check" class="icon" x="1090" y="652" width="23" height="23"/><text class="k" x="1127" y="669">OUTCOME GRADER</text><text class="n" x="1090" y="693">rubric-driven revision loop</text>
  <rect class="panel" x="1480" y="138" width="220" height="108" rx="18"/><use href="#plug" class="icon" x="1499" y="159" width="23" height="23"/><text class="k" x="1534" y="175">MCP SERVER</text><text class="l" x="1499" y="212">Google Docs</text><path class="line" d="M1016 338H1048V738H1458V192H1480"/>
  <rect class="panel" x="1480" y="278" width="220" height="108" rx="18"/><use href="#plug" class="icon" x="1499" y="299" width="23" height="23"/><text class="k" x="1534" y="315">MCP SERVER</text><text class="l" x="1499" y="352">Slack</text><path class="line" d="M1016 368H1058V748H1468V332H1480"/>
  <rect class="panel" x="40" y="478" width="220" height="172" rx="18"/><use href="#file" class="icon" x="59" y="499" width="23" height="23"/><text class="k" x="94" y="515">RESULTS</text><text class="l" x="59" y="551">brief.md</text><text class="n" x="59" y="578">Google Doc filed</text><text class="n" x="59" y="604">Slack updates posted</text><text class="n" x="59" y="630">local file downloaded</text><path class="line" d="M284 564H260"/>
</svg>
